<svg height="512" viewBox="0 0 512 512" width="512" xmlns="http://www.w3.org/2000/svg"><g id="Flat"><rect fill="#4db7e5" height="192" rx="32" width="240" x="248" y="152"/><path d="m360 344h40v-48a15.843 15.843 0 0 0 -2.219-8h-37.781z" fill="#48add9"/><path d="m304 208h96v80h-96z" fill="#f35244"/><path d="m400 264 48 16v-64l-48 16z" fill="#de4132"/><path d="m304 208h88v-56h-112a32 32 0 0 0 -32 32v56h56z" fill="#48add9"/><path d="m304 240h56a32 32 0 0 0 32-32h-88z" fill="#ea4a3b"/><path d="m384 280h-24v8h37.781a15.933 15.933 0 0 0 -13.781-8z" fill="#ea4a3b"/><path d="m280 280v-40a32 32 0 0 0 -32-32v72z" fill="#48add9"/><rect fill="#4d5e78" height="192" rx="16" width="256" x="128" y="280"/><path d="m368 280h-10.667l-192 192h202.667a16 16 0 0 0 16-16v-160a16 16 0 0 0 -16-16z" fill="#44546c"/><path d="m248 280h-104a16 16 0 0 0 -16 16v88h16l64 48-8-48h48a32 32 0 0 0 32-32v-72z" fill="#44546c"/><g fill="#374357"><path d="m264 320h96v16h-96z"/><path d="m280 352h40v16h-40z"/><path d="m336 352h24v16h-24z"/><path d="m296 384h64v16h-64z"/><path d="m264 384h16v16h-16z"/><path d="m216 384h32v16h-32z"/><path d="m216 416h96v16h-96z"/><path d="m328 416h32v16h-32z"/><path d="m152 416h16v16h-16z"/></g><rect fill="#348fd9" height="200" rx="32" width="240" x="136" y="24"/><path d="m224 56h104v136h-104z" fill="#f79d16"/><path d="m288 192h-104v-136h64l40 40z" fill="#ffb531"/><path d="m248 56v40h40z" fill="#ffcb73"/><path d="m208 88h16v16h-16z" fill="#f79d16"/><path d="m208 120h56v16h-56z" fill="#f79d16"/><path d="m208 152h56v16h-56z" fill="#f79d16"/><path d="m104 456h304a0 0 0 0 1 0 0v16a16 16 0 0 1 -16 16h-272a16 16 0 0 1 -16-16v-16a0 0 0 0 1 0 0z" fill="#e0e0de"/><path d="m360 456v16a16 16 0 0 1 -16 16h48a16 16 0 0 0 16-16v-16z" fill="#d6d6d4"/><path d="m264 224v112a32 32 0 0 1 -32 32h-48l8 48-64-48h-72a32 32 0 0 1 -32-32v-112a32 32 0 0 1 32-32h176a31.969 31.969 0 0 1 32 32z" fill="#60d1e0"/><path d="m264 224v112a32 32 0 0 1 -32 32h-48l8 48-64-48h-69.04c39.39-24.34 81.82-53.38 107.99-79.55a525.713 525.713 0 0 0 74.79-94.94 32.01 32.01 0 0 1 22.26 30.49z" fill="#5ac6d4"/><path d="m200 336h-112a16 16 0 0 1 -16-16v-64a16 16 0 0 1 16-16h24l8-16h48l8 16h24a16 16 0 0 1 16 16v64a16 16 0 0 1 -16 16z" fill="#348fd9"/><circle cx="144" cy="288" fill="#2a71ad" r="24"/></g></svg>